<?xml version="1.0" encoding="UTF-8"?>
<svg id="_Слой_1" data-name="Слой 1" xmlns="http://www.w3.org/2000/svg" viewBox="0 0 100 101">
  <defs>
    <style>
      .cls-1 {
        fill: #bababa;
      }

      .cls-1, .cls-2 {
        stroke-width: 0px;
      }

      .cls-3 {
        stroke: #666;
        stroke-miterlimit: 10;
        stroke-width: 2px;
      }

      .cls-3, .cls-2 {
        fill: #666;
      }
    </style>
  </defs>
  <circle class="cls-1" cx="50" cy="50" r="50"/>
  <path class="cls-1" d="M100,50c0,14.12-5.86,26.88-15.28,35.97-8.99,8.68-21.24,14.03-34.72,14.03-14.06,0-26.77-5.81-35.85-15.16C5.39,75.84,0,63.54,0,50,0,22.39,22.39,0,50,0s50,22.39,50,50Z"/>
  <circle class="cls-2" cx="49.5" cy="22.5" r="16.5"/>
  <path class="cls-3" d="M85,81.5c0,1.51-.09,3.01-.28,4.47-8.99,8.68-21.24,14.03-34.72,14.03-14.06,0-26.77-5.81-35.85-15.16-.1-1.1-.15-2.21-.15-3.34,0-19.61,15.89-35.5,35.5-35.5s35.5,15.89,35.5,35.5Z"/>
</svg>